<svg xmlns="http://www.w3.org/2000/svg" viewBox="0 0 4660.36 346.89"><defs><style>.cls-1{fill:#700000;}.cls-2{fill:#6f0101;}.cls-3{fill:#c50001;}.cls-4{fill:#ebd1b4;}</style></defs><g id="Camada_2" data-name="Camada 2"><g id="Camada_1-2" data-name="Camada 1"><path class="cls-1" d="M179.36,155.15c-15.26,13.27-22.5,29.14-32.56,42.84-5.91,8-9.65,9.14-15.5.21-8.89-13.6-18.55-26.71-27.72-39.79-8.65,3.62-7.37,9.78-7.54,15.22-1.35,43.44-3.32,86.89-3.59,130.34-.1,15.82-5.18,22-21.25,21.11-16.56-.94-33.23-.44-49.84-.08-14,.3-22.59-4.69-21.22-19.86C8.76,209.76-1.59,114,6.87,18.56c.88-9.87,3.66-14.71,14-13.75a34.37,34.37,0,0,0,8.66,0c47.18-7.85,82.51,5.05,99.74,53.1C134.71,73,144.49,70.26,149,57,164.75,10.76,197.47-1.31,243.88,4.1c34.07,4,29.89-2.23,30.33,30.32,1.22,89.89,2.11,179.79,4,269.67.35,16.66-4.13,23.38-21.67,21.75a267.48,267.48,0,0,0-45.46-.08c-16.64,1.3-21-4.28-22.68-21.23C183.56,255.81,190,206.51,179.36,155.15Z"/><path class="cls-2" d="M1166.76,204.27c0-33.59-.45-67.19.22-100.76.27-13.14-2.63-19-17.77-19.13-49.74-.54-49.74-1.18-49.75-51.18,0-28.39,0-28.39,29.56-28.39,60.7,0,121.42.45,182.11-.31,15.44-.19,20.71,4.9,19.19,19.66-1.25,12-3.31,24.65-2.41,36,2.2,27.86-13,30.49-33.86,27.61s-35.17,1.39-33.2,26.51c.44,5.57-1.35,11.28-1.49,16.95-1.44,55.62-3.26,111.24-3.73,166.88-.12,14.55-5.86,21.36-19.35,22.73-17.9,1.81-35.89,2.74-53.8,4.52-12.57,1.25-16.22-4.2-16-16.08.57-35,.2-70,.2-105Z"/><path class="cls-1" d="M1552.92,4.89c-51.29-.15-102.58-.06-153.87,0-35.3,0-43.41,7-42.06,42.93,2.94,77.77,2.81,155.55,2.74,233.34,0,35.36,9.39,44.41,46.49,44.43,47.68,0,95.38-1,143,.47,18.88.56,29.5-5.26,35.75-22.66,3-8.28,4.92-16.16,4.89-24.85-.14-39.29-.06-78.57-.06-117.86h.59q0-58.93,0-117.86C1590.35,15.9,1579.67,5,1552.92,4.89Zm-70,251.36a59.24,59.24,0,0,0-15.11,0c-16,2.24-18.84-5.59-19.13-19.71-1-49.06,3.78-98.26-3.29-147.2-1.66-11.5,1.74-16.47,15.84-14,40,7.06,40.12,6.31,40.09,47.34q0,22.46,0,44.91c0,23.53-.74,47.08.24,70.57C1502.11,252.4,1497,258,1482.89,256.25Z"/><path class="cls-1" d="M1853.92,8.74q-26-.09-52,0c-29.09,0-29.13,0-29.19,29.69q-.07,40.86,0,81.7c-19.38-20-28.77-43.08-38.57-65.86-19.65-45.69-19.56-45.73-68.23-45.71-10.11,0-20.25.43-30.33-.12-10.79-.6-15.67,3-15.71,14.48-.32,97.08-1,194.16-1.7,291.24,0,5.11-.23,12.25,5.85,11.88,25.87-1.55,52.59,1.54,76.78-11.34a12.76,12.76,0,0,0,2-5.1,16.4,16.4,0,0,0,1.19-4.66q3.62-50,6.68-100c.31-5.11,1-8.47,7.2-5.94h0c9.89,28.29,32,51.42,39.24,80,11.5,45.1,41.35,51.08,80.85,47.16,14.57-1.44,19.76-4.48,19.87-19.63.43-54.89,0-110,4.46-164.6,3.24-39.86-.11-79.83,5.17-119.43C1869,10.82,1863,8.77,1853.92,8.74Z"/><path class="cls-1" d="M2136.1,309.37c-1.28-14.18-2.71-28.39-3-42.61q-2.22-107.05-3.74-214.13c-.12-8.29-1.52-15.53-7.42-21.57-5.34-10.3-7.81-23-22.27-25.57h0c-50.47,1.15-101,2.23-151.43,3.56-5,.13-9.87,2.2-14.87,2.66-18.89,1.73-25.86,14.63-26.92,30.52-2.09,31.29-.56,62.92-4.29,94-4.88,40.51-1.42,81.13-6,121.67-7.61,68.22-3.68,71.09,64.71,67.68a41.86,41.86,0,0,1,4.34-.05c8.26.36,11.36-3.78,11.74-11.67.81-17.07,2.61-34.09,3.31-51.16,1.57-38.33-5.09-35.21,36.73-35.34a15.69,15.69,0,0,0,2.17,0c17.74-2.69,24.48,2.47,25.69,22.43,1.42,23.42-6.47,52.43,5.56,68.87,13.32,18.18,44.19,3.91,67.16,6.9.71.09,1.45-.07,2.16,0C2131.81,326.66,2137.18,321.48,2136.1,309.37ZM2039.68,158.8c-13,7-29.67,2-44.76,2.19a6.88,6.88,0,0,1-4-1.57c-5.69-4.52-3.81-57.53,2.21-64.67,4.24-5,40.2-9.28,46.1-5.45,4.31,2.8,4.31,2.8,4.4,37.11a17.13,17.13,0,0,1,0,2.15C2042.28,138.92,2049.08,153.73,2039.68,158.8Z"/><path class="cls-1" d="M542.45,213.62c-.69-54.2.48-108.43-4.05-162.56-1.7-20.23-19.25-46.19-34.18-45.89-49.74,1-99.54,1.82-149.15,5-29.15,1.88-38,13.32-39.1,42.7-1.65,43.46-2.22,87-4.2,130.4q-2.58,56.44-7.4,112.77c-2.31,27.45-1.17,29.5,26.2,29.49,13.73,0,27.47-.27,41.19.12,9.65.28,14.09-2.66,14.72-13.24,1.46-24.09,4.58-48.08,6.7-72.14.61-7,1.65-11.6,10.41-13.14,42.44-7.43,52.55.41,52.83,42.48,0,3.57,0,7.14,0,10.72.09,45.16.09,45.16,45.06,45.18,6.51,0,13.13-.8,19.5.14,19.83,2.94,26.9-4.48,25.15-24.53C543.62,272.07,542.81,242.81,542.45,213.62Zm-121.28-52c-17.59.63-26.37-3.56-21-22.59.93-3.31.13-7.09.13-10.65h.18c0-2.85,0-5.71,0-8.56.24-24.73,19.87-38.37,44.46-31.57,7.66,2.12,7.9,7.07,7.94,12.92.05,9.26.19,18.53.13,27.8C452.72,164.86,457.52,160.32,421.17,161.61Z"/><path class="cls-1" d="M1073.49,301.69c-2.29-29.8-3.15-59.77-3.27-89.67-.21-53.48-.78-106.94-3.84-160.35-1.09-19.07-21.71-46.46-36.46-46.62-51.87-.54-103.57,3.7-155.33,6.3-22.74,1.14-30,15.92-31,33.83Q837.14,163.54,832.75,282c-1.64,43.45-.88,43.48,42,43.49,7.23,0,14.5-.54,21.66.1,12.62,1.12,18.08-2.88,18-16.58-.18-20.6,2-41.22,3.19-61.82.77-13,5.21-20.24,21-20.33,44.11-.23,44.41-.71,45.9,43.44.14,4.28.06,8.57.07,12.86.11,42.32.11,42.32,43.48,42.33,7.23,0,14.57-.84,21.65.16C1069.15,328.45,1074.93,320.42,1073.49,301.69Zm-140-140.52c-1.39-.35-3.28-.22-4.1-1.09-9.17-9.71-7-23.11-3.44-32,4.91-12-7.41-30.51,12.62-36.48,36.54-10.91,42.09-6.37,42.25,33.33C981,161.05,969.12,170.13,933.51,161.17Z"/><path class="cls-1" d="M802.61,39.72c0-13.62-7-21.64-19.68-24.16-10.52-2.09-21.4-2.68-32.15-3.27-53.93-3-108-4.58-161.75-9.23C573.59,1.73,571.94,6,572,18.19c.31,47.87.13,95.74.13,143.61V303.28a17,17,0,0,0,0,2.14c.9,6.48-2.74,16.92,8.08,16.57,24.37-.77,51.07,1.77,72.07-7.52,11.75-5.21,6.89-32.37,8.31-49.8.18-2.13,0-4.29.1-6.42.32-5.67-.27-11.87,8-12.82,6.39-.73,11.44,1.21,14.51,7,5,9.48,9.87,19.08,14.93,28.55,25.49,47.69,25.51,47.68,76.65,32,.68-.21,1.35-.51,2-.72,15.26-4.75,21.54-13.25,13.44-28.93-5.57-10.79-9.77-22.27-15.3-33.09-3.66-7.17-3.93-10.46,5.35-13.67,16.47-5.72,21.66-21.07,21.92-36.1C803.12,146.9,802.46,93.3,802.61,39.72Zm-112,129.76c-23,1.41-29-6.44-26.74-27.54,1.77-16.21,1-32.77.27-49.13-.54-12.42,4.77-17.24,16.61-15.38,12.21,1.92,29.58-5.64,32.43,14.84,1.46,10.49.26,21.34.26,32h.07c0,7.13-.66,14.33.13,21.37C715.61,163.14,708.74,168.37,690.62,169.48Z"/><path class="cls-3" d="M3124.91,19c-49.83-.13-99.65,0-149.48,0-36.44,0-42.8,6.55-42.87,44-.09,49.89,6.64,99.63,3.43,140.06,0,34.52,0,59.51,0,84.5,0,32.85,8.29,41.14,42.13,41.27,46.93.19,93.87.1,140.81.09,26.84,0,39.44-11,39.3-38.3-.39-78.45,1.44-156.84,3.82-235.24C3162.77,31.72,3149.11,19,3124.91,19Zm-51.64,108.2c.22,16.43,0,32.87,0,49.31h-.08c0,22.16.09,44.32,0,66.47-.06,9.64,2.6,23.07-13.63,19.91-12.56-2.45-33,13.06-36-15.71-5.24-50-1.08-99.91-2.74-149.82-.28-8.43,3.28-10.66,11.88-10.07C3080.29,90.56,3072.62,80.37,3073.27,127.17Z"/><path class="cls-3" d="M4025,250.29h-3.87c0-61.35.23-122.71-.13-184.07-.12-21.17-19.65-47.22-35.5-46.93-48.31.9-96.66,1.69-144.87,4.61-27.63,1.68-38.14,15.82-38.85,43.66-1.13,44.94-.77,90-4.52,134.75-2.81,33.48.45,67.09-4.43,100.31-3.72,25.37-3.45,26.15,23.28,26.28,3.61,0,7.23,0,10.84,0,48.38,0,48.38,0,48.72-49.06.32-46.37,2.14-47.7,47.63-46,12.31.45,16.51,4.42,16.13,16.39-.65,20.71.4,41.46-.15,62.17-.3,11.58,3.14,17.15,15.88,16.63,18-.74,36.16-.79,54.19,0,12.83.57,16.18-5,15.83-16.56C4024.55,291.76,4025,271,4025,250.29ZM3910.09,169c-29.32,0-30.29-1.21-25.06-30.11.75-4.16,2.18-8.6,1.42-12.55-3.65-18.95,6.51-24.53,23.25-26.61,18.19-2.27,29.83.44,26.2,22.44-.78,4.73.27,9.87,1.11,14.72C3942.51,169.08,3942.57,169.07,3910.09,169Z"/><path class="cls-3" d="M4660,303.12c-2.44-25.47-3.18-51.15-3.5-76.76-.69-54.17.15-108.35-3.46-162.46-1.76-26.28-20.17-45.31-45.93-44.72-41.75,1-83.49,2.44-125.22,4.08a93.11,93.11,0,0,0-23.33,3.88c-11.66,3.55-20.34,10.78-20.94,24-4,86.69-7.65,173.39-11.94,260.07-.71,14.53,5.09,18.83,18.87,17.92a378.53,378.53,0,0,1,41.12-.07c11.91.5,17.05-2.39,19.14-16,3.06-19.9,1.39-39.82,4.09-59.59,1.94-14.17,7.22-20.23,23.29-19.81,37.33,1,37.26,0,39.47,36.42.43,7.08,2.27,14.06,2.91,21.14,3.38,37.67,3.32,37.67,42,37.71,5.77,0,11.65-.71,17.3.13C4654.79,332.1,4662,323.77,4660,303.12Zm-106.45-134a67.62,67.62,0,0,0-15.05,0c-18.11,1.88-27.89-2.27-20.85-23.29,2.6-7.74,1.5-16.9,1.09-25.37-.52-10.62,2.09-16,14.4-18.56,36.15-7.46,38-6.48,38.21,33.84,0,5-.42,10,.12,14.89C4573,164,4568.23,170.9,4553.59,169.1Z"/><path class="cls-3" d="M4281.1,67.61c-.06-29.73-11-39.64-41.8-40.9-54.63-2.23-109.38-3.71-163.75-8.87-19.78-1.87-21.38,4-21.14,19.64.68,45,.24,90,.25,135,0,42.85,1.1,85.73-.45,128.53-.73,20,3.37,27.68,25.44,24.92,64.39-8.06,57.42,7.65,59.91-58.45.25-6.78-1.79-15.56,8.22-17.27,8.81-1.5,12.41,5.83,16,12,10.41,17.92,20.78,35.85,30.93,53.91,3.7,6.58,7.47,11.32,16.51,10.92,55.82-2.5,65.3-17.24,42.28-66.77a35.16,35.16,0,0,0-2.07-3.76c-3.83-6.23-2.43-10.51,4.48-13.45,19.92-8.49,25.47-24.85,25.34-44.74C4281,154.73,4281.19,111.17,4281.1,67.61ZM4173.29,176.76c-35.66-.72-29.67,2-30.08-29.66-.19-14.26.57-28.55-.11-42.77-.56-11.62,3.07-16.37,15.73-16.58,34.14-.56,36.75,2.13,36.75,45.7,0,7.13-.71,14.34.14,21.37C4197.82,172.11,4189.85,177.09,4173.29,176.76Z"/><path class="cls-3" d="M3718.2,34c-53.84-3.66-107.75-6.83-161.4-12.46-14.89-1.56-15.6,3.34-15.57,14.19q.22,94.23.07,188.48h-3.21c0,28.6.76,57.22-.31,85.78-.58,15.47,5.41,19.37,20.1,19.15,48.43-.74,96.88-.29,145.32-.32,29.71,0,56.84-27.23,57.67-56.66,1.74-61.31,3.9-122.6,6.16-183.89C3767.78,68,3738.23,35.37,3718.2,34Zm-35.76,138.46c-2.2,22-2.63,43.85-3.19,65.8-.42,16.22-15.27,25.29-40.95,24.92-17.67-.25-10.76-13.87-11.15-22.15-.94-19.88-.31-39.83-.31-59.75h-.38c0-22.77.54-45.56-.23-68.3-.38-11.15,3.06-14.41,13.49-10.42a14.56,14.56,0,0,0,2.13.36C3685,112,3688.1,115.78,3682.44,172.47Z"/><path class="cls-3" d="M2872.71,147.18c-28.61-2.59-57.18-6-85.84-7.3-13.24-.61-21.38-3-18.55-17.86,2.36-12.35-.53-29,21.3-26.58,5.64.63,11.89.65,17.15-1.11,10.95-3.67,16.88-.14,18.68,10.52,2.45,14.56,11.75,17.77,25,16.7,10.05-.81,20.21-.31,30.32-.2s18.74-5.59,19.78-13.61c3-23.23,8.27-49.17-2.28-69.38-8.59-16.44-34.08-14.78-52.75-19.12-3.42-.8-7.21-.31-10.81-.08-38.74,2.42-77.49,4.63-116.2,7.46-24.21,1.77-34.45,12.46-34.83,36.09-.54,32.84-.26,65.69-.73,98.53-.31,21.21,10.43,33.75,30.82,36.63,31.26,4.41,62.7,7.81,94.17,10.43,11.93,1,16.34,5.1,16.49,16.91.34,25.71-4.15,30.42-30.27,31-17.24.36-34.24,2.09-34.08-22.89,0-6.78-5.59-9.62-12.13-9.44-19.37.52-41.55-6.52-57.23,3.09-12,7.38-7,28.93-8.6,44.33-.67,6.36-2.9,12.84-2.16,19,2.84,23.65,9.84,42.45,38.93,39.13,22.81-2.59,46.16-.52,69.27-.53,26.72,0,53.44.24,80.16-.09,18.57-.24,37.07-16.63,37.41-34,.65-33.55,1-67.14.15-100.68C2905.38,172.77,2887.06,148.47,2872.71,147.18Z"/><path class="cls-3" d="M3385.32,271.38c-.67-13.46-6-19.16-19.94-18.66-20.18.72-40.4.18-60.6.18-30.68,0-31,0-30.54-29.28.74-45.58,2.48-91.15,2.94-136.73.71-69.59.41-69.18-70.36-68.27-14.57.19-18.43,5-18.22,18.64.67,44.94.25,89.9.25,134.85h-.34c0,46.38.12,92.76-.1,139.13,0,10.22.27,17.93,14.39,17.81,58.44-.5,116.89-.29,175.34-.13,11.22,0,15.52-3.27,12.73-15.39A241,241,0,0,1,3385.32,271.38Z"/><path class="cls-3" d="M3494.54,22.53c-18,.91-36.15.81-54.18,0-12.63-.56-18,2.84-17.92,16.58.18,56.33-6.37,112.54-3.47,168.94q0,34.31,0,68.59c-.05,51.28-.06,51.27,50.67,48.83,5-.25,10.13,0,15.16-.45,9.72-.84,15.64-4.55,16.05-15.87q4.89-134.6,10.75-269.15C3512.14,27.27,3508.14,21.84,3494.54,22.53Z"/><path class="cls-3" d="M4379.53,22.55a492.31,492.31,0,0,1-52,0c-14-.77-16.69,5.57-16.76,17.85-.33,55.59-5.8,111.08-3.28,166.74q0,32.13,0,64.26c0,60.23,0,60.23,60.41,53.87,2.15-.23,4.29-.58,6.41-1,9.55-1.71,14.69-5.79,14.93-17q2.94-133.6,7.2-267.19C4396.87,27.43,4393.18,21.85,4379.53,22.55Z"/><path class="cls-3" d="M2469.37,187.21a8.94,8.94,0,0,1-6.81-2c-8.18-6.94,21.87-7.89,26.87-9.67-10.51-5.28-36.76-.51-41.43-5.1-11.16-10.95,32.4-5.76,38-7.55-9.72-7.43-42.09-7-44.89-13.21-5.69-12.62,35,.8,46,.74,1.19-1.67-35.92-15-33.14-21,1.58-3.44,31.44,8.71,40.85,9.76,18.09,3.45,18.13,3,7.68-10.37a12.44,12.44,0,0,1-2.66-6.43c-.58-5.85,3.45-6.94,9.16-.62,9.06,6.27,19.2,12.22,26.45,20.64,3.75,5.05,30.87,10.64,53.44,14.27C2621.59,89.54,2578.49,0,2501.45,0c-52.58,0-76.7,41.48-86.11,49.22C2405.9,41.44,2381.92,0,2329.24,0c-68.37,0-110.35,70.8-95.6,133.8,23.69,3.1,58.42,6.27,64.07,1.92,9.27-6.13,20.65-9.09,31.08-12.65,7.21-4.53,10.79-2.38,8.64,3.09a12.44,12.44,0,0,1-4.31,5.47c-13.69,10-13.78,10.46,4.56,12.07,9.34,1.55,41.38-2,42,1.74,1,6.58-38.3,9.26-37.61,11.19,10.59,3.06,53.4,1.24,44.47,11.83-4.37,5.19-35.4-4-46.79.47,4.9,3.25,48.23,10.13,34.51,17.62-5.76,3.14-29.71-8.59-41.27-6.38,4.33,3.07,33,12.18,23.23,16.63a9,9,0,0,1-7.1.06c-16.11-6.61-30.3-9.58-47.5-14.07-21.4-5.58-38.23-9.35-51.4-11.85a110.25,110.25,0,0,0,9.34,11.67l147.61,160.58a11,11,0,0,0,16.43,0l142-154.45c-12.4-1-27.72-1.72-46.64-2.11C2501.14,186.26,2486.67,185.25,2469.37,187.21Z"/><path class="cls-4" d="M2349.08,196.86a9,9,0,0,0,7.1-.06c9.75-4.45-18.9-13.56-23.23-16.63,11.56-2.21,35.51,9.52,41.27,6.38,13.72-7.49-29.61-14.37-34.51-17.62,11.39-4.49,42.42,4.72,46.79-.47,8.93-10.59-33.88-8.77-44.47-11.83-.69-1.93,38.64-4.61,37.61-11.19-.58-3.74-32.62-.19-42-1.74-18.34-1.61-18.25-2.1-4.56-12.07a12.44,12.44,0,0,0,4.31-5.47c2.15-5.47-1.43-7.62-8.64-3.09-10.43,3.56-21.81,6.52-31.08,12.65-5.65,4.35-40.38,1.18-64.07-1.92a107.76,107.76,0,0,0,16.54,37.14c13.17,2.5,30,6.27,51.4,11.85C2318.78,187.28,2333,190.25,2349.08,196.86Z"/><path class="cls-4" d="M2588.9,156.66c-22.57-3.63-49.69-9.22-53.44-14.27-7.25-8.42-17.39-14.37-26.45-20.64-5.71-6.32-9.74-5.23-9.16.62a12.44,12.44,0,0,0,2.66,6.43c10.45,13.33,10.41,13.82-7.68,10.37-9.41-1-39.27-13.2-40.85-9.76-2.78,6.05,34.33,19.35,33.14,21-11,.06-51.71-13.36-46-.74,2.8,6.19,35.17,5.78,44.89,13.21-5.59,1.79-49.15-3.4-38,7.55,4.67,4.59,30.92-.18,41.43,5.1-5,1.78-35,2.73-26.87,9.67a8.94,8.94,0,0,0,6.81,2c17.3-2,31.77-1,49.54-.58,18.92.39,34.24,1.15,46.64,2.11l5.63-6.13A108.12,108.12,0,0,0,2588.9,156.66Z"/></g></g></svg>