<svg xmlns="http://www.w3.org/2000/svg" viewBox="0 0 2257.61 1232.74"><defs><style>.cls-1{fill:#d90025;}.cls-2{fill:#393536;}.cls-3{fill:#413d3e;}.cls-4{fill:#dc1234;}.cls-5{fill:#3a3637;}.cls-6{fill:#f59aa9;}.cls-7{fill:#f38b9a;}.cls-8{fill:#ef788a;}.cls-9{fill:#383435;}</style></defs><g id="Camada_2" data-name="Camada 2"><g id="Camada_1-2" data-name="Camada 1"><path class="cls-1" d="M550.09,1090.75C535.15,951,513.26,812,497.33,672.3c-3.75-32.94-15.63-37.91-45-35.25-107.6,9.74-215.42,17.12-323.14,25.47-46,3.57-82.65-13.15-107.87-51.51-68.16-91.88,40-213.63,142.92-166.33,101.41,41.38,203.17,82.06,303.11,126.75,33.31,14.9,52.24,8.9,77-15.43,174.38-171.23,352-339.17,525.07-511.7,86.11-85.85,187.92-34.41,213.25,48.1,15.11,49.21-7.48,105.21-64.15,138.37-208.41,122-416.72,244.12-626.38,363.92-34.56,19.75-45.35,33.9-27.08,73.92,56.52,123.83,108,249.93,161,375.33,27.43,64.88,41.84,110.84,15.9,147.84-33.71,48.07-103.33,55-145.87,14.56C563.85,1175.64,554,1127.3,550.09,1090.75Z"/><path class="cls-2" d="M1766.78,509.75c-12.89,31.34-25.78,62.69-39.46,96,46.77,5.42,87.25.34,127.21-27.76,3.29,37.11-18.74,60.42-31.91,100.15-6.79-58.37-42.7-50.25-74.74-54.47-36.81-4.84-41.66,21.86-50.38,44.19-7.93,20.35-31.34,43.72-19.31,60.89,15.2,21.68,47.14,10.83,72,8.7A301.42,301.42,0,0,0,1899,683.79c-16,43.5-32.16,76.9-91.68,72.55-92.29-6.73-185.43-1.77-282-6.14,53,1.82,61.54-38.77,77.25-72.3Q1635.85,607,1668.87,536c8.57-11.52-5.85-36.83,14-37.38C1710.61,497.86,1742.37,481.68,1766.78,509.75Z"/><path class="cls-3" d="M1766.78,509.75c-55.56-21.17-80.28-14.54-97.91,26.26,9.07-27.85-11.9-34.38-30.48-43.44h311.76c-1.65,24-11.12,43.13-23.5,66.51C1887.75,488.29,1823.87,511.21,1766.78,509.75Z"/><path class="cls-4" d="M2211.24,617.66c69.91,16.81,36.44-108.1-74.35,3.3a31.41,31.41,0,0,1-9.13,6c-15.71,6.57-28.12-10.08-34.21-19.18-25.19-37.64-58.9-23.86-126.78-23.86,32,25.08,109.57,92,72.34,120.85-22.72,14.75-46,24.58-75.42,12.41-14-5.78-29.79-1.29-40.15,12.17-5,6.5-5,13.79.16,20.42,10.92,13.93,26.85,12.84,41.22,10.7,35.37-5.25,65.41-19.4,89.47-43.88a25.66,25.66,0,0,1,11.27-6.81c11-3.1,11.55,5.56,17.5,13.88,35.73,49.88,93.86,55.61,153.46,20.84-44.7-1.65-55.84-14.73-82.21-40.91-12.16-12.06-37-37.5-8.85-65C2165.63,624.53,2185.72,610.41,2211.24,617.66Z"/><path class="cls-5" d="M976.27,494.08c24.77,10.19,54.07,8.22,39.39,41.18-26.78,60.12-53.48,120.28-81,180.06-6.29,13.65-16.3,25.27-32.85,28.15-12.07-.12-25.63-5.12-38.38,12.23h206.91c-6.64-12.83-21.19-8.24-32.6-10.81a16.43,16.43,0,0,1-2.65-.87c-21.71-9.11-9.86-25.28-4.6-37.45,22-50.81,46-100.75,67-151.92,12.56-30.6,28.89-54.56,64-60.57Z"/><path class="cls-5" d="M1499.38,492.65c-87.09-31.46-265.65,22.42-312.54,102-90.55,151.1,143.63,199.48,245.72,147.1,0,0,35.53-18.11,50.37-30.71l-6.37-8.89-28.93,14.37a194.6,194.6,0,0,1-88.86,20.7c-61-.77-112.28-23.1-87.57-104.75,32.8-114.51,200.92-194,265.73-62.18,13.71-28.53,25.67-55.77,30.75-93.83C1543.77,499.06,1521.82,499.69,1499.38,492.65Z"/><path class="cls-6" d="M75.7,477.23C43.44,522.34,43.44,522.34,43.64,590.7,12.88,544.14,24.51,503,75.7,477.23Z"/><path class="cls-7" d="M1257.12,92.92c-19.59-37-17.07-37-55.7-63.23-6.25-4.24-15.21-5.14-22.76-5.37-24.33-.75-36.91,10.41-53.5,23,18.57-7,33.73-11.32,56.66-6.09h0a86.45,86.45,0,0,1,37.7,20.28c18.6,17,28.74,41.18,30,66.36a145,145,0,0,1-1.94,32.1C1262.48,139.79,1270,115.67,1257.12,92.92Z"/><path class="cls-8" d="M681.91,1206.68c-22.1,9.62-44,14.24-68.5-5.83C639.41,1198,660.5,1211.6,681.91,1206.68Z"/><path class="cls-5" d="M1624.82,882.08v67.2h-16.38v-67.2Z"/><path class="cls-5" d="M1643.64,915.18c0-5.61-.24-10.23-.53-14.44h14.29l.81,7.29h.38c2.86-3.77,9.87-8.38,20.62-8.38,11.28,0,23,5.45,23,20.8v28.83h-16.37V921.89c0-7-3.41-12.27-12.35-12.27-6.51,0-11,3.45-12.73,7.21a9.31,9.31,0,0,0-.75,3.89v28.56h-16.37Z"/><path class="cls-5" d="M1718.74,938a45,45,0,0,0,16.51,3.54c7.2,0,10.41-2.26,10.41-5.44s-2.67-5-10.62-7.08c-12.67-3.25-17.94-8.42-17.89-14.18,0-8.53,9.46-15.18,24.56-15.18a47.64,47.64,0,0,1,17.16,2.9l-3.25,8.61a37,37,0,0,0-13.68-2.79c-5.82,0-9.06,2.15-9.06,5.14s3.12,4.56,11.29,6.8c11.78,3.12,17.21,7.63,17.27,14.78,0,8.85-9.19,15.24-26.28,15.24-7.83,0-15-1.41-19.71-3.4Z"/><path class="cls-5" d="M1793.54,886.84v13.9h15.56v9.15h-15.56V931.3c0,6,2.1,9,8.36,9a32.39,32.39,0,0,0,6.36-.53l.33,9.34a48.15,48.15,0,0,1-11.91,1.26c-6,0-11-1.54-14.06-4-3.52-2.79-5.12-7.26-5.12-13.62V909.89h-9.23v-9.15h9.23v-11Z"/><path class="cls-5" d="M1838.66,887.16c0,3.66-3.52,6.62-9.32,6.62-5.42,0-9-3-9-6.62s3.66-6.64,9.16-6.64S1838.61,883.39,1838.66,887.16Zm-17.33,62.12V900.74h16.38v48.54Z"/><path class="cls-5" d="M1873.94,886.84v13.9h15.57v9.15h-15.57V931.3c0,6,2.11,9,8.37,9a32.39,32.39,0,0,0,6.36-.53l.32,9.34a48,48,0,0,1-11.9,1.26c-6,0-11-1.54-14.06-4-3.52-2.79-5.12-7.26-5.12-13.62V909.89h-9.23v-9.15h9.23v-11Z"/><path class="cls-5" d="M1959.62,934.74c0,5.77.24,10.59.54,14.54h-14.3l-.79-7.34h-.38c-2.73,3.41-9.12,8.44-20.72,8.44-11.8,0-22.53-5.32-22.53-21.17V900.74h16.37v26.42c0,8.06,3.4,13.22,12.07,13.22,6.54,0,10.8-3.42,12.49-6.56a8.25,8.25,0,0,0,.88-3.79V900.74h16.37Z"/><path class="cls-5" d="M1996,886.84v13.9h15.56v9.15H1996V931.3c0,6,2.11,9,8.37,9a32.35,32.35,0,0,0,6.35-.53l.33,9.34a48.12,48.12,0,0,1-11.9,1.26c-6,0-11-1.54-14.07-4-3.51-2.79-5.11-7.26-5.11-13.62V909.89h-9.24v-9.15h9.24v-11Z"/><path class="cls-5" d="M2084.42,924.53c0,17.85-16.69,25.85-33.24,25.85-18.25,0-32.38-9.45-32.38-25,0-15.92,14-25.72,33.48-25.72C2071.54,899.65,2084.42,909.82,2084.42,924.53Zm-48.8.53c0,9.34,6.22,16.4,16.09,16.4,9.38,0,15.89-6.79,15.89-16.56,0-7.63-4.5-16.34-15.79-16.34C2040.33,908.56,2035.62,917,2035.62,925.06Z"/><path class="cls-5" d="M2184.76,878.49v57.18c0,5,.24,10.32.54,13.61h-14.57l-.73-7.68h-.3c-3.86,5.43-11.67,8.78-21,8.78-15.45,0-27.68-9.89-27.68-24.81-.1-16.26,13.44-25.92,29-25.92,8.86,0,15.24,2.74,18.13,6.32h.27V878.49ZM2168.41,921a12.59,12.59,0,0,0-.37-3.2c-1.45-4.72-6.71-8.62-14.06-8.62-10.55,0-16.38,7-16.38,16s5.89,15.43,16.19,15.43c6.69,0,12.48-3.42,14.13-8.73a11.2,11.2,0,0,0,.49-3.58Z"/><path class="cls-5" d="M2213.75,928.41c.44,8.79,9.51,12.64,20,12.64a64.21,64.21,0,0,0,17.85-2.25l2.42,8.45a76.05,76.05,0,0,1-22.61,3.08c-21,0-33.31-9.74-33.31-24.61,0-13.4,10.83-26.07,31.64-26.07,21,0,27.88,13,27.88,23.6a19.7,19.7,0,0,1-.57,5.16Zm28.46-8.56c.07-4.49-2.54-11.83-13.5-11.83-10.06,0-14.25,6.87-15,11.83Z"/><path class="cls-5" d="M1466.62,1046.62c-3.88,1.45-12.4,3-23.25,3-28.41,0-45.72-13.39-45.72-33.85,0-22.1,20.57-35.45,47.95-35.45,10.77,0,18.39,1.64,21.69,3l-3.55,9.79a54.73,54.73,0,0,0-17.47-2.63c-18.25,0-31.4,8.55-31.4,24.71,0,14.81,11.51,24.19,31.19,24.19a61.76,61.76,0,0,0,17.85-2.44Z"/><path class="cls-5" d="M1496.7,986.49c0,3.66-3.53,6.62-9.32,6.62-5.43,0-9-3-9-6.62s3.67-6.64,9.16-6.64S1496.64,982.72,1496.7,986.49Zm-17.33,62.12v-48.54h16.37v48.54Z"/><path class="cls-5" d="M1524.78,1027.74c.43,8.79,9.5,12.64,20,12.64a64.21,64.21,0,0,0,17.85-2.25l2.43,8.45a76.18,76.18,0,0,1-22.62,3.08c-21,0-33.31-9.74-33.31-24.61,0-13.4,10.83-26.07,31.64-26.07,21,0,27.88,13,27.88,23.6a19.76,19.76,0,0,1-.57,5.16Zm21-48.73,13,14.75h-11.26l-7.15-9h-.26l-7.13,9h-11.19l12.9-14.75Zm7.48,40.17c.07-4.49-2.54-11.83-13.49-11.83-10.07,0-14.26,6.87-15,11.83Z"/><path class="cls-5" d="M1581.71,1014.51c0-5.61-.24-10.23-.54-14.44h14.3l.81,7.29h.38c2.86-3.77,9.86-8.38,20.61-8.38,11.29,0,23,5.45,23,20.8v28.83H1623.9v-27.39c0-7-3.41-12.27-12.34-12.27-6.52,0-11,3.45-12.73,7.2a9.39,9.39,0,0,0-.75,3.9v28.56h-16.37Z"/><path class="cls-5" d="M1705.07,1047.15c-3.39,1.2-10.14,2.51-18.27,2.51-20.28,0-33.35-9.76-33.35-24.83,0-14.53,13.23-25.83,36-25.83a54.87,54.87,0,0,1,15.8,2.22l-2.9,9.23a35.32,35.32,0,0,0-12.38-1.9c-12.48,0-19.87,6.84-19.81,15.74,0,10,8.72,15.66,19.87,15.66a41.49,41.49,0,0,0,12.85-1.91Z"/><path class="cls-5" d="M1734.47,986.49c0,3.66-3.53,6.62-9.33,6.62-5.42,0-9-3-9-6.62s3.66-6.64,9.16-6.64S1734.41,982.72,1734.47,986.49Zm-17.33,62.12v-48.54h16.37v48.54Z"/><path class="cls-5" d="M1787.42,1048.61l-1.12-5.41h-.39c-3.92,3.83-10.69,6.51-19.07,6.51-13.13,0-20.4-7-20.4-14.44,0-12.25,14.55-18.45,38.38-18.38v-.8c0-3.19-1.68-8.5-13.14-8.46a43.45,43.45,0,0,0-17.39,3.62l-3.24-8c4.88-2.23,13.26-4.3,23.45-4.3,20.75,0,26.67,9.81,26.67,20.46v17.48a55.13,55.13,0,0,0,1,11.69Zm-2.16-23.77c-11.55-.12-22.59,1.71-22.59,9.1,0,4.75,4.16,7,9.33,7,6.53,0,11.23-3.16,12.8-6.72a7.11,7.11,0,0,0,.46-2.66Z"/><path class="cls-5" d="M1817.62,1037.32a45,45,0,0,0,16.51,3.54c7.2,0,10.41-2.26,10.41-5.45s-2.67-5-10.62-7.07c-12.67-3.26-17.94-8.43-17.89-14.18,0-8.53,9.46-15.18,24.56-15.18a47.85,47.85,0,0,1,17.16,2.89l-3.25,8.62a36.93,36.93,0,0,0-13.68-2.79c-5.82,0-9.06,2.15-9.06,5.14s3.12,4.56,11.29,6.8c11.78,3.12,17.21,7.62,17.27,14.78,0,8.85-9.19,15.24-26.28,15.24-7.83,0-15-1.41-19.71-3.4Z"/><path class="cls-5" d="M1951.76,1018.8H1918v19.71h37.75v10.1h-54.12v-67.2h52.14v10.1H1918v17.28h33.76Z"/><path class="cls-5" d="M1980.3,1000.07l7.65,9.14c2.14,2.59,4,5,5.87,7.54h.33c1.87-2.73,3.73-5.2,5.66-7.71l7.18-9h17.8l-21.64,23.28,22,25.26h-18.55l-7.87-9.7c-2.13-2.59-4-5.16-5.87-7.87h-.32c-1.86,2.78-3.76,5.24-5.8,7.88l-7.52,9.69h-18l22.41-24.75L1962,1000.07Z"/><path class="cls-5" d="M2071.31,1048.61l-1.12-5.41h-.4c-3.92,3.83-10.69,6.51-19.06,6.51-13.13,0-20.4-7-20.4-14.44,0-12.25,14.54-18.45,38.38-18.38v-.8c0-3.19-1.69-8.5-13.14-8.46a43.46,43.46,0,0,0-17.4,3.62l-3.24-8c4.89-2.23,13.27-4.3,23.45-4.3,20.75,0,26.68,9.81,26.68,20.46v17.48a55.19,55.19,0,0,0,1,11.69Zm-2.17-23.77c-11.54-.12-22.59,1.71-22.59,9.1,0,4.75,4.16,7,9.33,7,6.53,0,11.23-3.16,12.8-6.72a6.91,6.91,0,0,0,.46-2.66Z"/><path class="cls-5" d="M2120.22,986.17v13.9h15.56v9.15h-15.56v21.41c0,5.94,2.1,9,8.36,9a33.19,33.19,0,0,0,6.36-.53l.33,9.34a48.15,48.15,0,0,1-11.91,1.26c-6,0-11-1.54-14.06-4-3.51-2.79-5.12-7.26-5.12-13.62v-22.82H2095v-9.15h9.23v-11Z"/><path class="cls-5" d="M2184.41,1048.61l-1.12-5.41h-.39c-3.93,3.83-10.7,6.51-19.07,6.51-13.13,0-20.4-7-20.4-14.44,0-12.25,14.55-18.45,38.38-18.38v-.8c0-3.19-1.68-8.5-13.14-8.46a43.41,43.41,0,0,0-17.39,3.62l-3.25-8c4.89-2.23,13.27-4.3,23.46-4.3,20.75,0,26.67,9.81,26.67,20.46v17.48a55.13,55.13,0,0,0,1,11.69Zm-2.17-23.77c-11.54-.12-22.58,1.71-22.58,9.1,0,4.75,4.15,7,9.32,7,6.53,0,11.24-3.16,12.81-6.72a7.09,7.09,0,0,0,.45-2.66Z"/><path class="cls-5" d="M2214.61,1037.32a45,45,0,0,0,16.51,3.54c7.19,0,10.41-2.26,10.41-5.45s-2.67-5-10.63-7.07c-12.66-3.26-17.93-8.43-17.88-14.18,0-8.53,9.46-15.18,24.55-15.18a47.91,47.91,0,0,1,17.17,2.89l-3.25,8.62a37,37,0,0,0-13.68-2.79c-5.82,0-9.06,2.15-9.06,5.14s3.12,4.56,11.29,6.8c11.78,3.12,17.21,7.62,17.27,14.78,0,8.85-9.2,15.24-26.28,15.24-7.83,0-15-1.41-19.71-3.4Z"/><rect class="cls-9" x="854.28" y="799.17" width="1393.92" height="18.21"/></g></g></svg>