<svg xmlns="http://www.w3.org/2000/svg" viewBox="0 0 2667.59 742.14"><defs><style>.cls-1{fill:#700000;}.cls-2{fill:#c50001;}.cls-3{fill:#ebd1b4;}</style></defs><g id="Camada_2" data-name="Camada 2"><g id="Camada_1-2" data-name="Camada 1"><path class="cls-1" d="M470.28,80.59c14.52-23.75,28-45.14,40.7-66.94,4.36-7.47,8.68-11.9,18.36-11.61,24.7.74,49.45.7,74.16,0,10.29-.27,13.55,2.67,13.64,13.21Q618.54,180,621,344.75c.15,10-2,14.38-13,13.67-13.76-.9-27.62-.22-41.44-.22-40.21,0-40.78,0-41.25-41.14-.59-52.58-.14-105.18-.14-157.77l-8.33-1.56c-15.13,22.2-30.25,44.41-46.84,68.78L423.58,156.3c-2.47,63-5.4,119.76-6.47,176.5-.33,17.31-4.25,24.29-22.95,22.48-19.46-1.87-39.25-.88-58.86-.24-10.89.35-15.4-2.48-15.18-14.4Q323,178.1,324.81,15.53c.12-10.42,3.48-14.74,13.87-13.26a35.21,35.21,0,0,0,4.36,0C368.43,2.63,398-4.88,418,5.59c19,9.92,28,38.69,41.43,59.15C462.59,69.56,465.93,74.26,470.28,80.59Z"/><path class="cls-1" d="M2272.48,145.82c0-39.44.59-78.89-.3-118.31-.33-14.73,3.47-20.66,19.29-19.75,22.49,1.3,45.12.75,67.67.18,10.27-.25,14.1,2.76,13.67,13.51q-6.42,162.57-11.95,325.18c-.33,9.63-4,12.87-13,11.59a11.33,11.33,0,0,0-2.18,0c-64.55,2.17-64.5,2.15-92.22-55.72-17.4-36.31-35-72.55-56-108.65-1.63,44.12-4.35,88.25-4.41,132.38,0,20.29-6.16,28.45-27.06,27.94-17.33-.43-34.79,2.42-52.11,4.49-9.34,1.11-12.72-1.39-12.6-11.32q2-164.89,3.07-329.79c.06-8.53,3-11.18,11.37-11,25.46.4,51,.63,76.41-.1,11.21-.32,12.61,7.7,15.88,14.55,17.15,35.81,34.15,71.7,51.29,107.52,2.93,6.13,6.26,12.08,9.41,18.11Z"/><path class="cls-2" d="M556.64,740.14H478.05c-25.38,0-40.18-14.12-40.8-40a132.76,132.76,0,0,1,2.76-28c3.19-16.72-5-42.36,9-48.48,18.38-8,42.74-2.76,64.53-2.77,12.2,0,10.72,10,11,17.4.69,16,7.51,23.74,24.35,20.7,3.52-.64,7.26-.1,10.9-.1,38.78,0,38.41,0,39.12-39.48.21-11.85-1.11-17.71-15.68-18.8-36.94-2.76-73.68-8-110.5-12.3-16.93-2-31.72-17.4-31.72-34.59q0-64,1.21-128c.39-20,13.78-32,34.41-32.95,35.61-1.66,71.42-1.7,106.74-5.82,29.89-3.49,57.53,1.68,85.53,10.18,10,3,14.14,7.28,14.26,17.84.22,19.5,1.64,39,3.08,58.46.64,8.62-2,14.92-8.36,21-13.83,13.2-30.62,4.13-45.7,7.14-19.57,3.9-30.23-4-32.51-23.3-1.31-11.07-8.24-11.94-17.13-10.76-9.37,1.24-18.88,3.38-28.18,2.79-15.25-1-19.36,5.89-20.47,19.89-2.6,32.75-3.3,33,30.51,36.19,29,2.78,57.94,5.22,87,7.15,12,.79,18.82,5.39,24.47,16.75C686.4,571.5,692.2,592.69,690,616.66c-2.19,24.45-2,49.11-2.73,73.68-1,35.12-16.25,49.8-52.08,49.8Z"/><path class="cls-1" d="M1604.24,223.76c0-39-.43-78,.25-117,.21-12.31-1.68-17.89-16.22-17.7-19.19.24-44.92,9.1-55.9-4.08-9.4-11.28-2.83-35.85-3-54.54-.26-28.14-.15-28.14,28.49-28.14,68.33,0,136.67.44,205-.34,15.13-.18,21.37,3.16,18.27,19-1.79,9.14-1.61,18.68-2.07,28.06-2,41.37-2,41-42.72,41.48-32.73.36-30.15-7.22-31.64,31.45-2.7,70-5.56,140-7.63,210-.38,13.08-3.65,18.88-18,19.31-20.27.6-40.54,3.35-60.66,6.24-12.52,1.81-16-2-15.71-14.55.8-39.71.3-79.45.3-119.17Z"/><path class="cls-1" d="M37.68,182.57c0-51.32,1-102.65-.5-153.92C36.65,9.78,42.79,5.4,60.34,6.81c19.51,1.57,39.27.93,58.87.14C131,6.48,135.27,9,134.76,22.23q-6,156-10.27,312c-.33,11.29-2.79,16.86-15.37,17.58-18.83,1.08-37.62,3.61-56.28,6.5-13,2-17.68-.89-17.43-15.29.92-53.46.36-107,.36-160.42Z"/><path class="cls-1" d="M2031.17,2.32q-88.34-.12-176.67,0c-31,0-38.68,7.94-38.65,39.86q0,69.36,0,138.71h1.59q0,68.26,0,136.54c0,26,13.7,40.48,40.35,40.67,59.61.41,119.23.12,178.85.12,5.73,0,12.07,1.19,15.09-5.58,6.09-13.62,14.46-25.82,14.46-42.27,0-90.3,1.19-180.6,1.87-270.9C2068.25,16.19,2054.46,2.35,2031.17,2.32Zm-57.15,129c-.18,44.7-1,89.4-.27,134.08.22,14.47-2.85,19.94-18.82,19.69-42-.66-42.16.17-42.72-40.92-.3-21.62-.06-43.25-.06-64.87h-2.56c0-29.55.49-59.12-.24-88.66-.28-11.44,2.77-14.5,14.6-13.64C1974.2,80.67,1974.24,80.26,1974,131.34Z"/><path class="cls-1" d="M2667.57,346.36c-2.6-99-4.31-198-7.22-297-.76-25.75-27.11-47.53-52.89-46.37-50.13,2.26-100.26,4.78-150.4,7.09-25.87,1.19-36.1,11.19-37.25,36.71q-3.33,73.65-6.7,147.3h.1c-1.92,42.61-4.05,85.2-5.69,127.82-1.39,36.32-1.12,36.71,34.92,36.15,16.47-.25,37.42,7.09,48-3.58,8.16-8.2,3.85-28.64,5.1-43.64.3-3.6.22-7.32,1.13-10.77,4.34-16.34-6.31-39.66,8-48.23,12.88-7.71,34-1.25,51.37-2.34,12.38-.78,16.48,3.43,16.31,15.68-.37,26,1,52.05.8,78.07-.06,10.38,1.68,15.81,14.14,15.26,22.51-1,45.11-.55,67.65-.14C2663.93,358.51,2667.84,356.53,2667.57,346.36ZM2527.51,177.8c-18.08.48-24.92-3.91-21.19-22.5,2.11-10.49.44-21.68,1.71-32.4,1-8.81-4.6-22.61,5.78-25.37,16.54-4.39,34.49-3.92,51.88-4.47,3.36-.1,3.06,5.79,3.08,9.28.07,10.84,0,21.68,0,32.51C2570.39,177.55,2570.37,176.66,2527.51,177.8Z"/><path class="cls-1" d="M1168.44,259c25.71-10.13,33.11-21.72,33.09-49.08q0-81.31-.25-162.61c-.07-21.07-9.61-31.71-30.81-33.08C1102.28,9.86,1034,6.35,965.88,1.42,950.86.33,947.77,4.88,948,18.78c.74,52.75.3,105.51.3,158.27,0,53.48.56,107-.35,160.43-.25,14.7,4.06,18.7,18.27,16.74,18-2.49,36.19-4.39,54.29-4.34,14.62,0,20.71-3.93,20.13-19.44-.62-16.53,1.43-33.18,2.83-49.73.42-5-3-12.75,6.23-13.42,7.68-.55,15.84-2.25,20.47,7.49,5.26,11.06,11.69,21.57,17.64,32.31,28.8,51.93,28.81,51.93,85.64,34.47.69-.22,1.44-.22,2.14-.41,14.26-3.94,18.27-12.93,12.19-26-7-15-14.58-29.8-21.86-44.71C1163.75,266.06,1160.1,262.32,1168.44,259Zm-61.18-154.47c-1.58,21.48-1.11,43.15-.56,64.71.29,11.08-3.62,14.6-14.79,15.43-46.67,3.48-46.63,3.87-45-43,.12-3.59,0-7.19,0-10.79h.67c0-5-.09-10.07,0-15.1.8-38.55.76-37.8,38.82-35.09C1103.18,81.94,1108.47,88.14,1107.26,104.56Z"/><path class="cls-1" d="M1496.93,346.39c-2.58-98.28-4.41-196.58-7-294.85-.72-27-26.37-49.79-53-48.59-50.14,2.26-100.27,4.78-150.4,7.16-26.91,1.29-36.21,11.05-37.41,38.71-2.1,48.38-4.41,96.76-6.62,145.13l-6.08,0c0,49.11-.15,98.23.21,147.35,0,5.59-4.67,15.81,4.58,16.23,26.1,1.19,53.52,4.48,77.93-2.12,10.85-2.93,3.11-29.06,5.8-44.45.62-3.55.28-7.31,1.17-10.77,4.23-16.38-6.19-39.71,8-48.3,12.82-7.75,34-1.29,51.35-2.4,12.31-.79,16.51,3.27,16.33,15.59-.38,26,1,52,.83,78.06-.05,10.29,1.54,15.91,14.08,15.36,22.51-1,45.1-.55,67.65-.14C1493.27,358.51,1497.2,356.59,1496.93,346.39ZM1358.35,177.8c-18.13.5-28.12-2.3-22.48-23.1,1.48-5.45.75-11.5.94-17.28,1.43-43.57,7.83-48.7,52.4-45.13,8.76.7,9.07,4.59,9,10.76-.06,10.83,0,21.67,0,32.5C1399.85,177.47,1399.82,176.64,1358.35,177.8Z"/><path class="cls-1" d="M909,52.36c-.72-27.92-26.66-50.75-54.46-49.42q-75.21,3.59-150.41,7.21c-23.88,1.13-35,12.11-36,35.73q-3.2,73.66-6.44,147.33l-2,0c0,17.34.36,34.69-.1,52s-2.22,34.65-2.53,52c-.35,19.92-10,45.52,2.4,58,9.51,9.55,35.75,2.66,54.55,3.05,4.36.08,8.78-.42,13.09.1,10.91,1.3,15.75-2.38,15.57-14.12-.22-14.41.22-29.07,2.62-43.24,2.84-16.83-6.13-40.76,7-48.9s35.29-1.56,53.43-2.55c11.44-.63,15.19,3.3,15.08,14.59-.26,26,1.12,52.05.85,78.07-.12,11.34,2,17,15.27,16.35,21.78-1.09,43.66-.71,65.47-.11,10.19.28,13.75-2.41,13.47-13.29C913.31,247.53,911.54,149.94,909,52.36Zm-132,125.5c-19.09.65-26.69-3.46-22.3-23.59,2.43-11.13,2.48-23.15,1.37-34.56-1.82-18.67,5.79-25,24.23-25.95,36.56-1.79,36.51-2.7,37.55,42.2C818.86,177.44,818.83,176.44,777.05,177.86Z"/><path class="cls-2" d="M939,384.26q-87.24-.11-174.48,0c-33.81,0-40.79,7.36-40.7,42.22.12,45.5,0,91,0,136.52h1.61q0,66.09,0,132.19c0,32.91,12.5,44.92,47,45q77.41.09,154.84,0c32.49,0,46.14-13,46.49-45.83q1.44-136.51,2.24-273C976.22,398.05,962.28,384.28,939,384.26ZM882,513.4c-.06,17.29,0,34.58,0,51.87h-.62c0,28.82-.38,57.65.19,86.46.22,10.78-2.54,14.81-14.38,15.23-46.38,1.62-46.34,2.1-47.09-43.13-.81-49.71-1.25-99.43-2.8-149.11-.42-13.49,2.92-17.18,16.85-15.61C882.19,464.55,882.23,464,882,513.4Z"/><path class="cls-2" d="M1952.85,581.38h-5.52c0-45.51.35-91-.1-136.52-.4-40.79-22.41-61.6-62-59.71q-70.79,3.39-141.57,6.87c-27.13,1.32-37.69,11.3-38.81,38-3.42,81.55-7,163.09-9.54,244.67-.68,21.29-12.33,51.35.78,61.6,14.1,11,43,2.79,65.39,4,12.33.69,18.43-1.57,18.22-15.83-.27-18.72,2.2-37.46,3.3-56.2,2.16-36.69,2.1-36.69,38.09-36.69,7.27,0,14.63.73,21.79-.16,11.8-1.45,14.61,3.55,14.64,14.54.07,26.72,2,53.43,2,80.15,0,11.57,4.08,14.66,15.19,14.21,20.33-.83,40.79-1.33,61,.12,15.28,1.09,17.56-5,17.35-18.3C1952.4,675.27,1952.85,628.32,1952.85,581.38Zm-136.26-21.55c-21.09.95-29.32-4.4-24.93-25.74,1.88-9.13.61-18.9,2.63-28s-5.35-23.62,6.41-26.86c15.71-4.33,33-3.65,49.58-3.89,5.28-.07,4.59,6.56,4.69,10.64.25,10.82.08,21.65.08,32.48C1857,559.28,1857,558,1816.59,559.83Z"/><path class="cls-2" d="M2667.53,730.34c-2.57-99.73-4.24-199.49-7.2-299.2-.77-26.12-26.77-47.38-53.06-46.19-50.13,2.26-100.26,4.79-150.39,7.18-26,1.24-36,11.17-37.12,36.71q-3.3,73.67-6.69,147.3h.09c-1.88,41.88-4,83.75-5.57,125.64-1.48,38.34-1.26,38.35,37.26,38.35,47.06,0,47.06,0,50.61-45.42a82.13,82.13,0,0,1,1-10.79c3.62-16.81-5.42-41,6.84-49.2,12.62-8.48,35-2,53-3.31,12.78-.94,16.22,4.09,16.08,16-.31,26,1,52.05.7,78.07-.15,11,2.76,15.37,14.61,14.91,22.52-.87,45.1-.31,67.65-.21C2662.35,740.21,2667.8,740.5,2667.53,730.34ZM2528.85,559.69c-18.61.58-26.95-2.81-22.54-23.33,2.54-11.81,2.17-24.49,1.41-36.67-1-16.13,4.77-22.76,21.72-23.79,38.95-2.35,38.91-3.15,40,41.65C2570.44,559.34,2570.41,558.41,2528.85,559.69Z"/><path class="cls-2" d="M2210.56,396.27c-68.89-4.35-137.82-8-206.66-12.85-13.8-1-17.16,2.67-17,16.1.77,52.72.32,105.45.3,158.18,0,54.18.44,108.36-.32,162.53-.19,13.44,3.23,17.76,17,16,20.15-2.61,40.51-3.86,60.81-4.86,9.74-.48,14.49-3.5,14.51-14,0-17.32.66-34.68,2.09-51.94.49-6-3.71-15.43,8.33-16.49,9.56-.83,16.43,1.35,20.78,10.95,4.75,10.49,11.07,20.28,16.65,30.4,28,50.84,27.92,50.46,84.29,33.59,18.26-5.46,21.09-14.92,13-30.57-7-13.43-13.16-27.28-20.07-40.76-3.43-6.7-3.19-10.51,5.42-11.84,24.77-3.85,29.63-24.08,30.1-42.87,1.4-57,.43-114.12.08-171.18C2239.71,407.82,2229.28,397.45,2210.56,396.27Zm-65.16,81.3c-.06,25.2-.42,50.41-.1,75.61.11,8.82-2.34,13.84-12,13.06a13.16,13.16,0,0,0-2.17.12c-47.45,4.35-47.45,4.35-45.6-52.28,0-5-.55-10.15.11-15.1,1.67-12.5-5.38-31.83,5.29-36,13.28-5.21,31,.83,46.82,2C2146.35,465.54,2145.41,471.85,2145.4,477.57Z"/><path class="cls-2" d="M1612.84,402.85c-63-5.14-126.08-9.46-189-15.14-14.41-1.29-17,3.42-16.88,16.33.6,53.47.25,107,.25,160.42h-1.92c0,52.75.57,105.51-.37,158.25-.26,14.51,4.11,17.93,18.12,17.75,57.44-.76,114.9-.31,172.35-.32,22.6,0,55.6-29,56.52-51.65q4.65-114.78,7.76-229.62C1660.15,440.68,1629.11,404.18,1612.84,402.85Zm-44.95,142.69c-.59,31.76-2,63.52-2.08,95.28,0,11.12-2.83,17-14.85,18.71-15.57,2.22-30.86,6.34-51.48,10.76,0-63.09.22-123.67-.21-184.24-.08-10.33,3.49-12.84,12.65-10.17,1.4.41,2.76.93,4.16,1.29C1568.84,490.4,1568.93,490.4,1567.89,545.54Z"/><path class="cls-2" d="M1228.76,668.67c-.14-11.85-5.72-14.09-16.27-13.89-29.82.56-59.7-.73-89.48.57-15.89.69-19.14-4.63-18.73-19.49,2.1-76.61,2.84-153.24,4.7-229.85.29-12.33-1.55-18.3-16-18.16-20.31.19-40.72-1.54-60.93-3.81-14.9-1.67-19.87,2.32-19.55,18.14,1.06,52.75.4,105.54.4,158.31h-3.35c0,52.77,1,105.58-.55,158.31-.57,19,5.55,22.13,22.89,21.76,54.55-1.15,109.14-.43,163.71-.42,40.84,0,40.89,0,36.86-39.23C1231.36,690.15,1228.88,679.43,1228.76,668.67Z"/><path class="cls-2" d="M1356.31,388.33c-21.07.9-42.28,1.36-63.28-.11-16-1.12-19,5-18.79,19.45.82,52.05.32,104.12.32,156.18h-3c0,53.51.52,107-.35,160.52-.23,14,3.78,17.56,17.16,15.42,19.36-3.1,38.91-5.42,58.47-6.78,10.56-.73,12.77-5.16,13.09-14.77q5.36-157.15,11.73-314.27C1372.18,391.44,1368.63,387.81,1356.31,388.33Z"/><path class="cls-2" d="M2357.41,388.41c-21.8.56-43.69,1.17-65.42-.19-14.32-.89-16.61,4.57-16.46,17.17.63,53.47.27,106.94.27,160.41h-3c0,52.75.51,105.5-.34,158.23-.23,13.91,3.78,17.87,17.23,15.76,18.64-2.92,37.43-5.38,56.25-6.53,12.08-.74,15.62-5.63,16-17.15q4.82-157.05,10.73-314.07C2373.12,389.27,2367.64,388.15,2357.41,388.41Z"/><path class="cls-2" d="M239.78,580.15a9,9,0,0,1-6.84-2c-8.22-7,22-7.93,27-9.72-10.57-5.3-36.93-.51-41.63-5.13-11.21-11,32.55-5.78,38.17-7.58-9.77-7.46-42.29-7.05-45.1-13.27-5.72-12.68,35.15.8,46.23.74,1.2-1.67-36.09-15-33.29-21.11,1.59-3.46,31.58,8.75,41,9.8,18.17,3.47,18.21,3,7.71-10.41A12.46,12.46,0,0,1,270.4,515c-.58-5.87,3.47-7,9.2-.62,9.11,6.3,19.29,12.28,26.58,20.74,3.76,5.07,31,10.69,53.68,14.34C392.7,482,349.4,392.07,272,392.07c-52.82,0-77.06,41.67-86.51,49.45-9.49-7.81-33.57-49.45-86.5-49.45-68.68,0-110.86,71.12-96,134.42,23.8,3.11,58.7,6.29,64.37,1.93,9.31-6.16,20.74-9.13,31.22-12.71,7.25-4.55,10.84-2.39,8.69,3.11a12.56,12.56,0,0,1-4.34,5.49c-13.75,10-13.84,10.5,4.58,12.12,9.39,1.56,41.57-2,42.16,1.75,1,6.61-38.48,9.31-37.79,11.24,10.64,3.08,53.65,1.25,44.68,11.88-4.39,5.22-35.57-4-47,.48,4.91,3.27,48.44,10.18,34.66,17.7-5.78,3.16-29.84-8.63-41.45-6.41,4.35,3.09,33.13,12.24,23.33,16.71a9.06,9.06,0,0,1-7.13.06c-16.19-6.64-30.45-9.63-47.73-14.14-21.5-5.61-38.4-9.39-51.63-11.9A110.19,110.19,0,0,0,29,575.52L177.25,736.84a11,11,0,0,0,16.51,0L336.41,581.68c-12.46-1-27.86-1.73-46.86-2.12C271.69,579.19,257.16,578.17,239.78,580.15Z"/><path class="cls-3" d="M118.94,589.84a9.06,9.06,0,0,0,7.13-.06c9.8-4.47-19-13.62-23.33-16.71,11.61-2.22,35.67,9.57,41.45,6.41,13.78-7.52-29.75-14.43-34.66-17.7,11.43-4.51,42.61,4.74,47-.48,9-10.63-34-8.8-44.68-11.88-.69-1.93,38.82-4.63,37.79-11.24-.59-3.76-32.77-.19-42.16-1.75-18.42-1.62-18.33-2.1-4.58-12.12a12.56,12.56,0,0,0,4.34-5.49c2.15-5.5-1.44-7.66-8.69-3.11-10.48,3.58-21.91,6.55-31.22,12.71-5.67,4.36-40.57,1.18-64.37-1.93A108.1,108.1,0,0,0,19.58,563.8c13.23,2.51,30.13,6.29,51.63,11.9C88.49,580.21,102.75,583.2,118.94,589.84Z"/><path class="cls-3" d="M359.86,549.46c-22.67-3.65-49.92-9.27-53.68-14.34-7.29-8.46-17.47-14.44-26.58-20.74-5.73-6.35-9.78-5.25-9.2.62a12.46,12.46,0,0,0,2.67,6.47c10.5,13.39,10.46,13.88-7.71,10.41-9.46-1-39.45-13.26-41-9.8-2.8,6.08,34.49,19.44,33.29,21.11-11.08.06-52-13.42-46.23-.74,2.81,6.22,35.33,5.81,45.1,13.27-5.62,1.8-49.38-3.41-38.17,7.58,4.7,4.62,31.06-.17,41.63,5.13-5,1.79-35.22,2.74-27,9.72a9,9,0,0,0,6.84,2c17.38-2,31.91-1,49.77-.59,19,.39,34.4,1.16,46.86,2.12l5.65-6.16A108.57,108.57,0,0,0,359.86,549.46Z"/></g></g></svg>